<?xml version="1.0" encoding="utf-8"?>
<!-- Generator: Adobe Illustrator 27.0.0, SVG Export Plug-In . SVG Version: 6.00 Build 0)  -->
<svg version="1.1" id="Lager_1" xmlns="http://www.w3.org/2000/svg" xmlns:xlink="http://www.w3.org/1999/xlink" x="0px" y="0px"
	 viewBox="0 0 205.5 189.3" style="enable-background:new 0 0 205.5 189.3;" xml:space="preserve">
<style type="text/css">
	.st0{font-family:'AkzidenzGroteskBE-Bold';}
	.st1{font-size:36.3598px;}
	.st2{letter-spacing:7;}
	.st3{font-size:29.5px;}
	.st4{letter-spacing:5;}
	.st5{font-family:'AkzidenzGroteskBE-Regular';}
</style>
<path d="M141.5,110.5c-0.9-1-1.7-2-2.7-2.8c-0.5-0.4-1.4-0.5-2.1-0.7c0.1,0.6,0.1,1.3,0.3,1.9c2.9,8.1,5.9,16.2,8.8,24.3
	c0.2,0.4,0.3,0.9,0.4,1.3c-0.5-0.1-1-0.1-1.4-0.3c-1.2-0.6-2.3-1.4-3.5-2c-2.8-1.2-4.2-3.3-5.1-6.3c-1.9-6.7-4.4-13.2-6.6-19.8
	c-0.3-0.7-0.6-1.9-1.2-2c-1.4-0.4-1.7-0.7-1.4-2.3c0.2-0.9-1.2-2.3-1-3.2c0.3-1.5-0.2-2.5-0.7-3.7c-4.7-11.7-10.1-23.1-16.4-34
	c-2.2-3.9-4-7.9-8.8-9.3c-1.5-0.4-1.9-1.4,0.1-2c0.9-0.3,1-0.8,0-1.1c-0.9-0.3-2-0.4-2.9-0.7c-1.3-0.5-1.4-1.2-0.2-2
	c0.2-0.1-0.1-1-0.3-1.5c-0.2-0.5-0.5-1-0.7-1.5c2.1-1,0.7-2.1,0.1-3.2c-7-11.5-14-22.9-21-34.4c-2.2-3.6-2.2-3.5,2.1-4.5
	c4.7-1.1,3.7-1.1,5.8,2.5c4.3,7.4,8.4,15,12.6,22.6c3.1,5.5,6.2,11,9.4,16.4c1.2,2,1.3,1.9,3.6,0.4c1.7-1.1,2.3-1.1,2.7,0.9
	c0.4,2.4,2,3.4,3.9,4.1c5.6,2,11,4.5,16.9,5.6c2.9,0.5,5.6,0.3,8.3-0.5c2.4-0.7,2.6-1.2,2.3-3.5c-0.3-2.1-0.5-4.3-0.7-6.4
	c-0.1-0.6-0.3-1.4-0.7-1.6c-2.6-1.7-3.6-4.2-3.7-7.2c-0.1-3.1,0.6-6,2.6-8.4c2.4-2.9,5.4-4.7,9.5-4.2c3.9,0.5,6.6,2.4,7.7,6.1
	c0.6,2.2,2.1,3.2,3.8,4.3c1.5,1,2.9,2.2,4.3,3.3c2.3,1.7,4.4,3.3,7.5,3.6c5.3,0.5,7.5,2.9,8.6,8.1c1.3,6.1-3.8,15.2-12.9,13.2
	c-0.8-0.2-1.5-1-2.1-1.6c-0.3-0.2-0.4-0.6-0.6-0.9c-0.2,0.4-0.7,0.9-0.6,1.2c0.2,0.8,0.6,1.6,1.1,2.2c1.1,1.4,1.5,2.9,0.7,4.6
	c-1.3,3.1-0.1,5.7,1.7,8.3c2.4,3.4,4.2,7.2,3.9,11.6c-0.2,3.8-0.5,7.6-1,11.4c-0.5,3.4-0.9,6.9-2,10.2c-3.1,9.8-13.3,14.8-23.3,9.5
	C145.1,114.3,143.3,112.4,141.5,110.5z M116.6,61.1c-0.2-0.1-0.5,0.1-0.8,0.1c0,0.2,0,0.3,0.1,0.5c0.7,1.2,1.4,2.3,2,3.4
	c4.1,8.7,8.2,17.4,12.3,26c0.2,0.4,0.4,0.9,0.7,1.3c0.6,1,5,2.6,5,2.2c0-1.4-0.4-2.8-0.6-4.2c-0.1-0.3-0.3-0.6-0.5-0.9
	c-3.4-3.5-3.6-7.8-2.2-12c0.7-2.3,0.2-3.8-1.5-5.2c-1.9-1.5-3.7-3.3-5.6-4.8c-2.5-2-5-3.8-7.9-6C117.5,61.6,117.1,61.3,116.6,61.1z"
	/>
<text transform="matrix(1 0 0 1 0.4004 150.6175)" class="st0 st1 st2">IDAMALI</text>
<text transform="matrix(1 0 0 1 0.7977 181.9331)"><tspan x="0" y="0" class="st0 st3 st4">PARK </tspan><tspan x="120.4" y="0" class="st5 st3 st4">ZOO</tspan></text>
</svg>
