<?xml version="1.0" encoding="utf-8"?>
<!-- Generator: Adobe Illustrator 27.0.0, SVG Export Plug-In . SVG Version: 6.00 Build 0)  -->
<svg version="1.1" id="Lager_1" xmlns="http://www.w3.org/2000/svg" xmlns:xlink="http://www.w3.org/1999/xlink" x="0px" y="0px"
	 viewBox="0 0 195.2 182.5" style="enable-background:new 0 0 195.2 182.5;" xml:space="preserve">
<style type="text/css">
	.st0{fill:#FFFFFF;}
</style>
<path class="st0" d="M139.1,110.5c-0.9-1-1.7-2-2.7-2.8c-0.5-0.4-1.4-0.5-2.1-0.7c0.1,0.6,0.1,1.3,0.3,1.9
	c2.9,8.1,5.9,16.2,8.8,24.3c0.2,0.4,0.3,0.9,0.4,1.3c-0.5-0.1-1-0.1-1.4-0.3c-1.2-0.6-2.3-1.4-3.5-2c-2.8-1.2-4.2-3.3-5.1-6.3
	c-1.9-6.7-4.4-13.2-6.6-19.8c-0.3-0.7-0.6-1.9-1.2-2c-1.4-0.4-1.7-0.7-1.4-2.3c0.2-0.9-1.2-2.3-1-3.2c0.3-1.5-0.2-2.5-0.7-3.7
	c-4.7-11.7-10.1-23.1-16.4-34c-2.2-3.9-4-7.9-8.8-9.3c-1.5-0.4-1.9-1.4,0.1-2c0.9-0.3,1-0.8,0-1.1c-0.9-0.3-2-0.4-2.9-0.7
	c-1.3-0.5-1.4-1.2-0.2-2c0.2-0.1-0.1-1-0.3-1.5c-0.2-0.5-0.5-1-0.7-1.5c2.1-1,0.7-2.1,0.1-3.2c-7-11.5-14-22.9-21-34.4
	c-2.2-3.6-2.2-3.5,2.1-4.5c4.7-1.1,3.7-1.1,5.8,2.5c4.3,7.4,8.4,15,12.6,22.6c3.1,5.5,6.2,11,9.4,16.4c1.2,2,1.3,1.9,3.6,0.4
	c1.7-1.1,2.3-1.1,2.7,0.9c0.4,2.4,2,3.4,3.9,4.1c5.6,2,11,4.5,16.9,5.6c2.9,0.5,5.6,0.3,8.3-0.5c2.4-0.7,2.6-1.2,2.3-3.5
	c-0.3-2.1-0.5-4.3-0.7-6.4c-0.1-0.6-0.3-1.4-0.7-1.6c-2.6-1.7-3.6-4.2-3.7-7.2c-0.1-3.1,0.6-6,2.6-8.4c2.4-2.9,5.4-4.7,9.5-4.2
	c3.9,0.5,6.6,2.4,7.7,6.1c0.6,2.2,2.1,3.2,3.8,4.3c1.5,1,2.9,2.2,4.3,3.3c2.3,1.7,4.4,3.3,7.5,3.6c5.3,0.5,7.5,2.9,8.6,8.1
	c1.3,6.1-3.8,15.2-12.9,13.2c-0.8-0.2-1.5-1-2.1-1.6c-0.3-0.2-0.4-0.6-0.6-0.9c-0.2,0.4-0.7,0.9-0.6,1.2c0.2,0.8,0.6,1.6,1.1,2.2
	c1.1,1.4,1.5,2.9,0.7,4.6c-1.3,3.1-0.1,5.7,1.7,8.3c2.4,3.4,4.2,7.2,3.9,11.6c-0.2,3.8-0.5,7.6-1,11.4c-0.5,3.4-0.9,6.9-2,10.2
	c-3.1,9.8-13.3,14.8-23.3,9.5C142.7,114.3,140.9,112.4,139.1,110.5z M114.2,61.1c-0.2-0.1-0.5,0.1-0.8,0.1c0,0.2,0,0.3,0.1,0.5
	c0.7,1.2,1.4,2.3,2,3.4c4.1,8.7,8.2,17.4,12.3,26c0.2,0.4,0.4,0.9,0.7,1.3c0.6,1,5,2.6,5,2.2c0-1.4-0.4-2.8-0.6-4.2
	c-0.1-0.3-0.3-0.6-0.5-0.9c-3.4-3.5-3.6-7.8-2.2-12c0.7-2.3,0.2-3.8-1.5-5.2c-1.9-1.5-3.7-3.3-5.6-4.8c-2.5-2-5-3.8-7.9-6
	C115.1,61.6,114.6,61.3,114.2,61.1z"/>
<g>
	<path class="st0" d="M6.4,124.9v25.7H0v-25.7H6.4z"/>
	<path class="st0" d="M20.2,124.9h8.2c3.1,0,7.9,0.1,11.1,3c2.7,2.4,3.7,6,3.7,9.6c0,2.2-0.3,3.9-0.7,4.9c-2.4,7.9-9.5,8.1-12.2,8.1
		H20.2V124.9z M26.7,130.4v15.1h2c3.4-0.1,8.1-0.3,8.1-7.6c0-1.8-0.2-3.6-1.3-5.2c-1.7-2.3-4.2-2.3-6.2-2.3H26.7z"/>
	<path class="st0" d="M67,124.9l9.5,25.7h-6.8l-1.3-4.1h-9.5l-1.3,4.1h-6.8l9.5-25.7H67z M63.5,131.1c-0.3,1.3-0.7,2.7-1.1,4
		c-0.5,1.9-1.5,4.9-2.1,6.9h6.5L63.5,131.1z"/>
	<path class="st0" d="M114.6,124.9v25.7h-6.1l0.4-18.3l0.1-2.6l-0.2,0.9c-0.3,1.5-0.4,1.6-0.7,2.7l-4.8,17.2h-5.5l-4.7-16.5
		l-1.1-4.6c0.1,2,0.1,2.5,0.2,4.9l0.3,16.2h-6.2v-25.7h9.4l3.9,14.4l0.9,4.1c0.4-1.8,0.4-2,0.7-3.2l4.1-15.3H114.6z"/>
	<path class="st0" d="M140.6,124.9l9.5,25.7h-6.8l-1.3-4.1h-9.5l-1.3,4.1h-6.8l9.5-25.7H140.6z M137.1,131.1c-0.3,1.3-0.7,2.7-1.1,4
		c-0.5,1.9-1.5,4.9-2.1,6.9h6.5L137.1,131.1z"/>
	<path class="st0" d="M159.9,124.9h6.4v20.3h10v5.4h-16.4V124.9z"/>
	<path class="st0" d="M193.3,124.9v25.7h-6.4v-25.7H193.3z"/>
</g>
<g>
	<path class="st0" d="M0,161.1h8.4c3.4,0,6.5,0,8.3,2.6c0.8,1.2,1.2,2.9,1.2,4.3c0,1.2-0.2,2.3-0.7,3.2c-1.8,3.7-5.6,3.8-8.5,3.9
		H5.2v6.8H0V161.1z M5.2,164.9v6.3h3.1c1.9,0,4.3-0.1,4.3-3.3c0-3-2.6-3-4.1-3H5.2z"/>
	<path class="st0" d="M35.5,161.1l7.7,20.8h-5.5l-1-3.3H29l-1,3.3h-5.5l7.7-20.8H35.5z M32.7,166.1c-0.3,1.1-0.6,2.2-0.9,3.2
		c-0.4,1.6-1.2,4-1.7,5.6h5.3L32.7,166.1z"/>
	<path class="st0" d="M51.2,161.1h9.4c2.2,0,4.9,0.1,6.8,2.1c1,1.1,1.7,2.7,1.7,4.6c0,4.2-2.9,5.2-4.3,5.8l4.8,8.3h-5.8l-4.1-7.4
		h-3.3v7.4h-5.2V161.1z M56.4,165v5.6h4.3c0.7,0,3.1-0.1,3.1-2.9c0-2.7-1.9-2.7-3-2.8H56.4z"/>
	<path class="st0" d="M79.2,161.1h5v8.5l7.8-8.5h6.3l-7.4,7.7l8,13.1h-5.9l-5.6-9.4l-3.2,3.3v6.1h-5V161.1z"/>
	<path class="st0" d="M134.4,161.1v2.6l-12.8,15.7h13.1v2.5h-16.3v-2.7l12.9-15.5h-11.8v-2.6H134.4z"/>
	<path class="st0" d="M154.1,182.5c-6.3,0-10.4-4.5-10.4-10.9c0-7.7,5.3-10.9,10.5-10.9c5.8,0,10.5,4,10.5,10.7
		C164.7,177.6,161,182.5,154.1,182.5z M154.2,162.8c-5.2,0-7.5,4-7.5,8.7c0,4.4,2.2,8.7,7.5,8.7c5.6,0,7.5-4.7,7.4-8.9
		C161.7,166.3,159,162.8,154.2,162.8z"/>
	<path class="st0" d="M184.6,182.5c-6.3,0-10.4-4.5-10.4-10.9c0-7.7,5.3-10.9,10.5-10.9c5.8,0,10.5,4,10.5,10.7
		C195.2,177.6,191.5,182.5,184.6,182.5z M184.7,162.8c-5.2,0-7.5,4-7.5,8.7c0,4.4,2.2,8.7,7.5,8.7c5.6,0,7.5-4.7,7.4-8.9
		C192.1,166.3,189.5,162.8,184.7,162.8z"/>
</g>
</svg>
