<?xml version="1.0" encoding="utf-8"?>
<!-- Generator: Adobe Illustrator 27.0.0, SVG Export Plug-In . SVG Version: 6.00 Build 0)  -->
<svg version="1.1" id="Lager_1" xmlns="http://www.w3.org/2000/svg" xmlns:xlink="http://www.w3.org/1999/xlink" x="0px" y="0px"
	 viewBox="0 0 165.5 215.7" style="enable-background:new 0 0 165.5 215.7;" xml:space="preserve">
<style type="text/css">
	.st0{fill:#FFFFFF;}
</style>
<g id="DpXk25_00000117674309786204092220000006148251438443431569_">
	<g>
		<path class="st0" d="M84.2,101.9c0-5.7,0-11.3-0.1-17c0-0.5-0.2-1-0.2-1.5c-0.3,0.3-0.7,0.6-1,1c-3.2,5-7.9,8-13.1,10.4
			c-5.7,2.6-10.4,6.3-13.6,11.9c-3.1,5.7-8.8,8.4-14.4,11.1c-3.6,1.8-7.2,3.3-11,4.7c-2.9,1.1-5.3,2.5-6.5,5.6
			c-0.5,1.3-1.6,2.5-2.6,3.6c-3.3,3.8-7.4,5.1-12.1,3.2c-2.7-1.1-5.3-2.6-7.9-4c-1.6-0.9-2-2.4-1.8-4.3c0.7-6.3,3.2-11.9,7.2-16.6
			c9.4-10.9,17.6-22.5,24.6-35.1c1.3-2.3,1.2-3.8-0.5-5.7c-2.1-2.4-3.8-5-5.6-7.6c-1.6-2.3-1.6-2.6,0.8-3.6c3-1.3,6.1-2.6,9.2-3.7
			c2.5-0.9,2.6-0.8,3.6,1.7C44,68,43.3,75.7,34.1,85.4c-5.4,5.7-10.6,11.5-14.9,18.1c-1.1,1.7-2.1,3.4-3.1,5.1
			c-0.3,0.5-0.4,1.2-0.6,1.8c0.6-0.4,1.2-0.7,1.7-1.2c4.2-4.5,8.2-9.1,12.5-13.6c1.6-1.7,3.4-3.2,5.3-4.6c1.6-1.2,2.7-0.7,3.2,1.3
			c0.7,2.6,0,4.9-1.7,7c-1.9,2.4-4.5,3.9-7.3,5c-6.3,2.6-9.7,7.7-12.1,13.8c-0.5,1.2-0.4,1.8,1.1,1.9c5.2,0.2,10.3-0.8,15-3.1
			c4.1-2,6.9-5.2,8-9.6c1.1-4.8,2.2-9.7,3-14.6c1-5.9,2.5-11.7,5.7-16.8c3.9-6.3,3.8-13.3,3.2-20.3c0-0.6-0.8-1.4-1.4-1.6
			c-1.2-0.4-2.6-0.6-3.9-0.8c-1.3-0.1-1.8-0.8-1.5-2c3.3-15.4,8.1-30.2,18.8-42.3c2.1-2.3,4.6-4.3,7.3-6c7.3-4.7,15.3-3,20.8,1.6
			c1.4,1.2,2.7,2.5,4,3.8c4.4,4,8.8,8.1,13.2,12.1c0.7,0.7,1.7,1.1,2.3,1.9c0.7,1.1,1.8,2.5,1.5,3.5c-0.5,1.7-2.2,0.4-3.4,0.3
			c-7.2-0.2-14.3-0.1-21,2.9c-4.4,2-7,5.6-8.2,10.1c-0.5,1.8-0.5,3.6,1.3,5c1.5,1.2,3.3,0.9,4.2-0.8c0.4-0.9,0.7-1.9,0.9-2.8
			c0.5-3.4,2.8-5.2,5.7-6.3c1.7-0.6,3.5-1.1,5.3-1.2c4.2-0.2,8.3-0.2,12.5-0.1c1.1,0,2.3,0.4,3.2,1c1.7,1.1,1.5,2-0.6,3.2
			c-0.5,0.3-0.9,0.9-1.4,1.3c0.6,0.2,1.2,0.4,1.7,0.7c1.3,0.7,2.7,1.4,3.7,2.3c1.3,1.2,1.2,2.9-0.1,3.9c-1.2,1.1-2.4,0.8-3.5-0.3
			c-0.9-0.9-1.9-1.8-2.8-2.7c-0.8,1-1.6,2.1-2.4,3.1c-0.5,0.6-1.1,1.2-1.7,1.8c-1,0.9-2.1,1.1-3.2,0.2c-1.2-0.9-1.7-2.2-0.9-3.5
			c0.8-1.3,1.8-2.4,2.7-3.6c0.8-1.1,0.3-2.4-1.2-2.4c-3.4-0.1-6,1.8-8.2,4.1c-0.5,0.5-0.8,1.1-1.1,1.6c-4.7,9.1-0.9,12.1,6.6,13.1
			c5.3,0.7,10.7,0.5,15.6-2.2c1.8-1,2.5-0.4,2.4,1.4c-0.1,1.9,0.5,3.4,2.5,3.5c2.1,0.2,2.5,1.6,3.3,3.1c0.8,1.7,1.8,3.6,3.2,4.8
			c1,0.9,2.7,1.1,4.1,1.4c1.3,0.2,1.9-0.7,1.5-1.9c-0.4-1.2-1.1-2.4-1.7-3.6c-0.4-0.8-0.9-1.5-1.3-2.3c0.8,0.2,1.6,0.3,2.3,0.5
			c14.4,3.9,19.7,13.3,20.9,24.8c0.2,2.1,0.9,3.7,2.3,5.2c5.5,6,8.2,13.1,8.2,21.3c0,5.5-0.6,10.9-2.4,16.2
			c-0.8,2.4-1.2,2.4-3.3,0.9c-2.1-1.6-2.4-1.6-3.1,1.2c-1.4,5.6-4.1,10.5-7.7,14.9c-1.7,2.1-3.6,3.9-5.5,5.8c-0.9,0.9-1.7,1-2.2-0.4
			c-0.2-0.5-0.3-1-0.4-1.4c-0.5-2.1-1.7-1.8-3.2-1.1c-12.9,5.4-25,3.4-36.5-4.1c-2.1-1.3-2.1-1.5-0.3-3.2c3.8-3.6,5.7-8.1,6.3-13.2
			c0-0.5-0.2-0.9-0.3-1.4c-0.4,0.2-0.9,0.3-1.3,0.6c-2.8,2.6-5.8,5.1-8.4,7.8c-4.8,5.1-9.3,10.4-13.9,15.7c-1.5,1.6-1.6,1.7-2.5-0.5
			c-3.1-7.1-6.9-13.6-12.1-19.4c-1.8-2.1-2.3-1.9,0.1-4.9c2.4-3,4.5-6.2,6.7-9.3c0.2-0.2,0.2-0.6,0.3-0.9c-0.3-0.1-0.6-0.3-0.9-0.2
			c-4.9,0.6-9.9,1-14.8,1.8c-2.7,0.5-5.4,1.6-8.1,2.4c-0.4,0.1-0.9,0.1-1.3,0.2c0.1-0.4,0.1-1,0.4-1.2c2.5-2,4.9-4,7.5-5.7
			c1.9-1.3,4.1-2.2,6.2-3.2c5.7-2.7,11.4-5.5,17.1-8.1c0.7-0.3,1.6-0.4,2.4-0.5c-2.1,4.1-4.1,8.3-6.4,12.4c-0.7,1.2-0.3,1.8,0.7,2.3
			c4.4,2.3,7.6,5.8,10.1,10c0.2,0.4,0.7,0.6,1.1,0.9c0.1-0.5,0.2-1,0.2-1.5c-0.1-2.8-0.2-5.6-0.2-8.4c0-1,0.3-2,0.3-3
			c0-0.9-0.1-1.6-1.4-1.1c-0.7,0.3-1.6,0.3-2.4,0.5c-2,0.3-2.4,0.1-2-1.9c0.5-2.4,1.2-4.8,1.8-7.2C86.5,103.3,86.4,102,84.2,101.9z
			 M139.3,118.2c5.7,0,9.7-2.6,12.7-7c1.9-2.7,1.7-3.3-1-5.2c-1.8-1.2-3.7-2.2-5.6-3.3c-0.4-0.2-1-0.7-0.9-0.9
			c0.2-0.6,0.6-1.4,1-1.4c1.8-0.2,3.5-0.3,5.3-0.2c2.5,0.1,4.9,0.5,7.4,0.5c1.4,0,1.7-1.4,0.7-2.5c-1.8-2-3.6-3.9-5.5-5.7
			c-1.5-1.4-2.6-2.8-2.1-5.2c0.4-1.8,0-3.6-1.3-5.1c-2-2.3-4.6-3.8-7.4-5c-0.3-0.1-1.2,0.2-1.2,0.2c0,3.2-1.4,1.4-2.6,0.8
			c-5.3-2.9-10.7-3.4-16.2-0.6c-0.4,0.2-0.6,0.7-0.9,1.1c1.3,0.4,1,1.1,0.1,1.5c-1.2,0.6-2.5,0.9-3.6,1.7c-2.8,1.9-4.2,4.7-3.9,8.1
			c0.3,3.1,1.7,5.8,5,6.8c1.4,0.5,2.9,0.6,4.3,1c0.5,0.2,1.4,0.8,1.4,0.9c-1.1,2.2,0.3,2,1.7,2c1.3,0,2.7,0.1,3.9,0.3
			c0.8,0.2,1.6,0.7,0.6,1.7c-0.5,0.5-1,0.9-1.4,1.4c-3.4,4.5-2.3,9.6,2.7,12.1C134.7,117.3,137.1,117.6,139.3,118.2z M44.8,110.6
			c0.4-0.2,1-0.4,1.3-0.7c1.8-2.3,3.8-4.6,5.2-7.1c5.6-10.5,5.5-10.5,14.7-17.7c1.9-1.5,3.9-3.1,5.4-5.1c2.4-3.1,4.3-6.6,6.4-9.9
			c-2.3-3.8-5.4-6.6-9-9.2c-1.3-0.9-1.5-0.5-1.8,0.7c-1.3,5.5-3.3,10.8-6.8,15.3c-2,2.6-4.2,5.1-6.5,7.6c-2.6,2.8-3.9,6-4.6,9.7
			c-0.9,5.2-1.7,10.5-4.6,15.1c-0.1,0.1-0.2,0.3-0.2,0.4C44.5,110.1,44.7,110.3,44.8,110.6z M143.7,125c0.3,3.2,1.4,5.5,3.7,7.2
			c0.9,0.7,1.9,1,2.6-0.1c2-3.3,3.9-6.6,5.6-9.9c1-2,0.7-3.9-1-5.5c-1.8-1.7-3.1,0.2-4.5,0.7c-1.5,0.6-2.9,1.8-3.9,3
			C145.1,121.7,144.5,123.4,143.7,125z M109.6,59.4c-2.1,0.8-4.2,1.3-6,2.3c-2.4,1.3-2.5,3.1-0.4,4.7c4.3,3.4,9.6,2.8,13.4,0.1
			c1.9-1.4,1.8-3.7-0.3-4.8C114.2,60.6,112,60.2,109.6,59.4z M103.3,83.6c0,0.3,0,1,0.2,1.6c0.2,0.6,0.7,1,1.1,1.5
			c0.3-0.3,0.7-0.6,1-1c1.7-2,3.4-3.9,5.2-5.9c0.6-0.6,1.3-1.2,1.9-1.7c-0.9-0.4-1.8-0.9-2.7-1C106.3,76.6,103.4,79.4,103.3,83.6z
			 M161.3,107.9c-0.3-0.9-0.4-1.9-0.9-2.2c-0.4-0.3-1.5,0.2-2.1,0.7c-0.9,0.7-1.8,1.5-2.3,2.5c-1.3,2.5,0,4.8,1,7
			c0.1,0.3,0.7,0.4,1.1,0.6c0.8-1.6,1.7-3.1,2.3-4.7C160.8,110.5,161,109.2,161.3,107.9z"/>
		<path class="st0" d="M22.2,153c-5,0-10,0-15,0c-0.6,0-1.2-0.3-1.8-0.5c0.4-0.5,0.7-1.2,1.2-1.5c3.1-2,6.1-4.1,9.3-5.9
			c12.9-7.3,26.7-12.4,41.4-15c1.6-0.3,3.3-0.3,5-0.4c1.2-0.1,2.4,0,3.7,0c-0.8,1-1.5,2.1-2.5,3c-6.4,5.9-12.8,11.6-19.2,17.5
			c-2.2,2-4.6,3-7.6,2.8C31.9,152.8,27.1,153,22.2,153z"/>
		<path class="st0" d="M149.3,40.2c-0.2,5.7-2.4,9.9-6.8,12.6c-3.3,2.1-7.1,3.4-10.7,5c-0.4-4.2,1.9-7.5,3.5-11
			c0.8-1.8,2.1-3.4,3.2-5.1c0.2-0.3,0.2-0.8,0.3-1.3c-0.4,0.2-0.9,0.3-1.1,0.6c-2.8,3.7-5.5,7.4-8.2,11.2c-0.7,0.9-0.9,2.1-1.5,3.1
			c-0.2,0.4-0.7,0.6-1.1,0.9c-0.2-0.4-0.6-0.7-0.7-1.2c-3.1-9.8-0.6-16.2,7.5-20.8c3.3-1.9,6.9-3.2,10.4-4.9
			c1.2-0.6,1.8-0.4,2.4,0.7C148.2,33.5,149.1,36.9,149.3,40.2z"/>
		<path class="st0" d="M44.5,46.4c0,0.8-0.1,1.7-0.1,2.5c-0.3,3.1-0.3,3.1-3.2,2.6c-3.1-0.5-6.2-0.8-9.3-1.6
			c-8.1-2-12.3-9.7-9.9-17.7c0.4-1.3,0.6-2,2.2-1.6c3.1,0.7,6.2,0.8,9.3,1.5C42.2,34.2,44.8,39.7,44.5,46.4z"/>
		<path class="st0" d="M148.7,65.4c-3.7,0-7.4-2.6-8.8-7.3c-0.1-0.4,0.3-1.3,0.7-1.4c2.4-1,4.8-2.2,7.4-2.8c3.4-0.8,6.2,0.7,8.3,3.4
			c2.4,3.2,2.1,4.5-1.5,5.9C152.7,64,150.7,64.7,148.7,65.4z"/>
		<path class="st0" d="M129.6,86.7c2.3,1.7,4.6,3.3,6.8,5.1c0.9,0.7,1.5,1.8,2.1,2.7c0.2,0.3,0.2,0.8,0.2,1.2c-0.3,0-0.7,0-0.9-0.1
			c-1.5-1.9-3.5-1.4-5.5-1.6c-3-0.3-4.9-3.3-4-6.1C128.5,87.5,129,87.2,129.6,86.7z"/>
	</g>
</g>
<g>
	<path class="st0" d="M25.2,179.4c-0.1-2.8-0.2-6.1-0.2-9.4h-0.1c-0.7,2.9-1.7,6.2-2.5,8.9l-2.8,8.9h-4l-2.4-8.8
		c-0.7-2.7-1.5-6-2.1-9h-0.1c-0.1,3.1-0.2,6.6-0.4,9.5l-0.4,8.7H5.3l1.5-22.9h6.9l2.2,7.6c0.7,2.6,1.4,5.5,1.9,8.2H18
		c0.6-2.7,1.4-5.7,2.2-8.2l2.4-7.6h6.8l1.3,22.9h-5.1L25.2,179.4z"/>
	<path class="st0" d="M46.6,182.3l-1.6,5.9h-5.4l7-22.9h6.8l7.1,22.9h-5.6l-1.8-5.9H46.6z M52.4,178.4l-1.4-4.9
		c-0.4-1.4-0.8-3.1-1.2-4.4h-0.1c-0.3,1.4-0.7,3.1-1.1,4.4l-1.4,4.9H52.4z"/>
	<path class="st0" d="M70.4,165.2h5.2v18.6h9.1v4.4H70.4V165.2z"/>
	<path class="st0" d="M99.8,165.2v22.9h-5.2v-22.9H99.8z"/>
	<path class="st0" d="M111,165.5c1.9-0.3,4.4-0.5,7-0.5c4.4,0,7.2,0.8,9.4,2.4c2.4,1.8,3.9,4.6,3.9,8.6c0,4.4-1.6,7.4-3.8,9.3
		c-2.4,2-6.1,3-10.6,3c-2.7,0-4.6-0.2-5.9-0.3V165.5z M116.3,184.2c0.4,0.1,1.2,0.1,1.8,0.1c4.7,0,7.8-2.5,7.8-8
		c0-4.8-2.8-7.3-7.2-7.3c-1.2,0-1.9,0.1-2.3,0.2V184.2z"/>
	<path class="st0" d="M146.3,182.3l-1.6,5.9h-5.4l7-22.9h6.8l7.1,22.9h-5.6l-1.8-5.9H146.3z M152.1,178.4l-1.4-4.9
		c-0.4-1.4-0.8-3.1-1.2-4.4h-0.1c-0.3,1.4-0.7,3.1-1.1,4.4l-1.4,4.9H152.1z"/>
</g>
<g>
	<path class="st0" d="M4.6,197.5c1.3-0.2,3-0.4,5.6-0.4c2.5,0,4.3,0.5,5.6,1.5c1.2,0.9,1.9,2.4,1.9,4.2c0,1.8-0.6,3.3-1.7,4.3
		c-1.4,1.3-3.5,1.9-5.9,1.9c-0.5,0-1,0-1.4-0.1v6.5H4.6V197.5z M8.6,205.7c0.4,0.1,0.8,0.1,1.4,0.1c2.2,0,3.5-1.1,3.5-3
		c0-1.7-1.2-2.7-3.2-2.7c-0.8,0-1.4,0.1-1.7,0.2V205.7z"/>
	<path class="st0" d="M28.3,210.7l-1.3,4.7h-4.3l5.6-18.2h5.4l5.6,18.2h-4.4l-1.4-4.7H28.3z M32.9,207.7l-1.1-3.9
		c-0.3-1.1-0.6-2.4-0.9-3.5h-0.1c-0.3,1.1-0.5,2.5-0.8,3.5l-1.1,3.9H32.9z"/>
	<path class="st0" d="M47.1,197.5c1.3-0.2,3.3-0.4,5.5-0.4c2.7,0,4.6,0.4,5.9,1.4c1.1,0.9,1.7,2.1,1.7,3.8c0,2.3-1.6,3.9-3.2,4.5
		v0.1c1.3,0.5,2,1.7,2.4,3.4c0.6,2.1,1.1,4.4,1.5,5.1h-4.2c-0.3-0.5-0.7-2-1.3-4.2c-0.5-2.3-1.3-2.9-2.9-2.9h-1.2v7.2h-4.1V197.5z
		 M51.2,205.3h1.6c2.1,0,3.3-1,3.3-2.6c0-1.7-1.1-2.5-3-2.5c-1,0-1.6,0.1-1.9,0.1V205.3z"/>
	<path class="st0" d="M68.5,197.2h4.1v8h0.1c0.4-0.7,0.8-1.3,1.2-2l4.1-6h5l-6,7.7l6.3,10.4h-4.8l-4.5-7.9l-1.6,1.9v5.9h-4.1V197.2z
		"/>
	<path class="st0" d="M100.4,214l10.1-14.8v-0.1h-9.2v-2h12.3v1.4l-10,14.7v0.1h10.2v2h-13.3V214z"/>
	<path class="st0" d="M137,206.1c0,6.3-3.8,9.6-8.4,9.6c-4.8,0-8.2-3.7-8.2-9.2c0-5.8,3.6-9.6,8.4-9.6
		C133.7,196.9,137,200.7,137,206.1z M122.8,206.4c0,3.9,2.1,7.4,5.8,7.4c3.7,0,5.8-3.4,5.8-7.6c0-3.6-1.9-7.4-5.8-7.4
		C124.8,198.8,122.8,202.4,122.8,206.4z"/>
	<path class="st0" d="M161,206.1c0,6.3-3.8,9.6-8.4,9.6c-4.8,0-8.2-3.7-8.2-9.2c0-5.8,3.6-9.6,8.4-9.6
		C157.8,196.9,161,200.7,161,206.1z M146.8,206.4c0,3.9,2.1,7.4,5.8,7.4c3.7,0,5.8-3.4,5.8-7.6c0-3.6-1.9-7.4-5.8-7.4
		C148.8,198.8,146.8,202.4,146.8,206.4z"/>
</g>
</svg>
