<?xml version="1.0" encoding="utf-8"?>
<!-- Generator: Adobe Illustrator 27.0.0, SVG Export Plug-In . SVG Version: 6.00 Build 0)  -->
<svg version="1.1" id="Lager_1" xmlns="http://www.w3.org/2000/svg" xmlns:xlink="http://www.w3.org/1999/xlink" x="0px" y="0px"
	 viewBox="0 0 350.6 84.2" style="enable-background:new 0 0 350.6 84.2;" xml:space="preserve">
<style type="text/css">
	.st0{fill:#FFFFFF;}
</style>
<path class="st0" d="M187.9,70.6c-8.4,1.8-14.7-3.9-14.9-11.7c-0.1-2.6,0.3-5.2,0.7-7.8c0.4-2.8,1-5.6,1.6-8.4
	c0.7-3.2,2.8-5.6,5.2-7.6c1.8-1.5,3.3-3.1,3-5.6c-0.2-1.4,0.4-2.4,1.5-3.2c0.5-0.4,0.9-0.9,1.2-1.4c0.1-0.2-0.1-0.7-0.2-1
	c-0.2,0.2-0.4,0.4-0.6,0.5c-0.6,0.3-1.3,0.8-1.9,0.7c-7-0.4-8.9-8.1-6.6-12.2c1.9-3.5,4-4.8,7.9-4.1c2.3,0.4,4.2-0.3,6.2-1.1
	c1.3-0.5,2.5-1.1,3.8-1.5c1.5-0.4,2.7-0.8,3.6-2.3c1.5-2.5,3.9-3.2,6.8-2.8c3.1,0.5,4.9,2.4,6,5c0.9,2.1,0.9,4.4,0.2,6.6
	c-0.7,2.2-1.9,3.8-4.1,4.5c-0.4,0.1-0.7,0.6-0.8,1c-0.7,1.5-1.2,3-1.9,4.5c-0.7,1.6-0.7,2,0.9,3c1.8,1.1,3.7,1.9,5.9,2.1
	c4.5,0.5,8.9-0.2,13.4-0.5c1.5-0.1,2.8-0.5,3.7-2.2c0.7-1.4,1.1-1.3,2.1-0.1c1.4,1.6,1.4,1.7,2.7,0.5c3.4-3.3,6.8-6.6,10.2-10
	c4.6-4.6,9.1-9.3,13.8-13.8c2.3-2.2,1.5-2.4,4.7-0.6c2.9,1.6,2.9,1.5,0.6,3.7c-7.5,6.9-14.9,13.7-22.3,20.6
	c-0.7,0.6-1.9,1.2-0.6,2.3c-0.3,0.3-0.6,0.6-0.8,0.9c-0.2,0.3-0.6,0.9-0.5,1c0.7,0.9,0.5,1.3-0.5,1.4c-0.7,0.1-1.5-0.1-2.2,0
	c-0.8,0-0.8,0.4-0.2,0.8c1.3,0.9,0.9,1.5-0.3,1.5c-3.8,0-5.9,2.5-8.3,4.9c-6.8,6.7-13.1,13.8-18.9,21.3c-0.6,0.8-1.2,1.4-1.3,2.6
	c0,0.7-1.4,1.4-1.4,2.1c0,1.2-0.4,1.4-1.5,1.4c-0.4,0-0.9,0.7-1.3,1.2c-3,4.3-6.1,8.6-8.9,13c-1.2,2-2.7,3.2-5,3.5
	c-1,0.1-1.9,0.5-2.9,0.7c-0.3,0.1-0.7-0.1-1.1-0.1c0.2-0.3,0.3-0.6,0.5-0.9c3.8-5.3,7.6-10.5,11.4-15.8c0.3-0.4,0.4-0.9,0.6-1.3
	c-0.6,0-1.2-0.1-1.7,0.1c-0.9,0.4-1.7,1-2.5,1.5C191.3,68.6,189.6,69.6,187.9,70.6z M220.6,37.1c-2.6,1-4.8,1.8-7,2.7
	c-1.7,0.7-3.4,1.6-5.1,2.3c-1.6,0.7-2.2,1.6-2.2,3.4c0.1,3.4-0.9,6.4-4.1,8.3c-0.2,0.1-0.4,0.3-0.5,0.5c-0.5,1-1.1,1.9-1.3,2.9
	c-0.1,0.3,3.4,0.1,4.1-0.5c0.3-0.2,0.5-0.5,0.8-0.8c4.8-5.5,9.5-10.9,14.3-16.4c0.7-0.7,1.4-1.4,2.1-2.1c0.1-0.1,0.1-0.2,0.2-0.3
	c-0.2-0.1-0.4-0.2-0.5-0.2C220.9,37,220.6,37.1,220.6,37.1z"/>
<g>
	<path class="st0" d="M8.9,27.4V53H2.5V27.4H8.9z"/>
	<path class="st0" d="M19.1,27.4h8.2c3.1,0,7.9,0.1,11.1,3c2.7,2.4,3.7,6,3.7,9.6c0,2.2-0.3,3.9-0.7,4.9C39,52.9,31.9,53,29.2,53
		H19.1V27.4z M25.5,32.8v15.1h2c3.4-0.1,8.1-0.3,8.1-7.6c0-1.8-0.2-3.6-1.3-5.2c-1.7-2.3-4.2-2.3-6.2-2.3H25.5z"/>
	<path class="st0" d="M79.1,27.4V53H73l0.4-18.3l0.1-2.6l-0.2,0.9c-0.3,1.5-0.4,1.6-0.7,2.7L67.8,53h-5.5l-4.7-16.5L56.4,32
		c0.1,2,0.1,2.5,0.2,4.9L57,53h-6.2V27.4h9.4l3.9,14.4l0.9,4.1c0.4-1.8,0.4-2,0.7-3.2l4.1-15.3H79.1z"/>
	<path class="st0" d="M101.5,27.4l9.5,25.7h-6.8l-1.3-4.1h-9.5L92.1,53h-6.8l9.5-25.7H101.5z M98,33.5c-0.3,1.3-0.7,2.7-1.1,4
		c-0.5,1.9-1.5,4.9-2.1,6.9h6.5L98,33.5z"/>
	<path class="st0" d="M117.1,27.3h6.4v20.3h10V53h-16.4V27.3z"/>
	<path class="st0" d="M146.8,27.4V53h-6.4V27.4H146.8z"/>
</g>
<g>
	<g>
		<path class="st0" d="M260.9,27.4h20.7v5l-14,15.6h13.9V53h-21.9v-4.8L274,32.4h-13V27.4z"/>
		<path class="st0" d="M301,53.8c-8.1,0-12.8-6.3-12.8-13.7c0-6.9,4.4-13.5,12.7-13.5c1.5,0,3.1,0.2,4.7,0.8
			c7.9,2.7,8.4,11.3,8.4,13c0,4.4-2,8.4-4.9,10.7C306.5,53.2,303.6,53.8,301,53.8z M305.4,33.8c-1.1-1.2-2.8-1.9-4.5-1.9
			c-3.9,0-6.4,3.4-6.4,8.1c0,6.1,3.4,8.4,6.4,8.4c3.1,0,6.3-2.2,6.5-7.6C307.6,38.1,306.9,35.4,305.4,33.8z"/>
		<path class="st0" d="M333.4,53.8c-8.1,0-12.8-6.3-12.8-13.7c0-6.9,4.4-13.5,12.7-13.5c1.5,0,3.1,0.2,4.7,0.8
			c7.9,2.7,8.4,11.3,8.4,13c0,4.4-2,8.4-4.9,10.7C339,53.2,336.1,53.8,333.4,53.8z M337.8,33.8c-1.1-1.2-2.8-1.9-4.5-1.9
			c-3.9,0-6.4,3.4-6.4,8.1c0,6.1,3.4,8.4,6.4,8.4c3.1,0,6.3-2.2,6.5-7.6C340,38.1,339.3,35.4,337.8,33.8z"/>
	</g>
</g>
</svg>
